<svg preserveAspectRatio="none" width="100%" height="100%" overflow="visible" style="display: block;" viewBox="0 0 22.7302 25.8064" fill="none" xmlns="http://www.w3.org/2000/svg">
<path id="Downtown" fill-rule="evenodd" clip-rule="evenodd" d="M0.0286135 0.0288862C0.0128694 0.0445752 0 5.85099 0 12.9319V25.8065L5.39458 25.792C9.22647 25.7817 10.8762 25.7631 11.0895 25.7277C11.6768 25.6304 12.3379 25.4951 12.6338 25.4117C12.799 25.3651 12.992 25.3119 13.0628 25.2933C13.1336 25.2748 13.3363 25.2073 13.5133 25.1433C13.6902 25.0793 13.8833 25.0118 13.9423 24.9933C14.1463 24.9293 14.609 24.7248 15.0576 24.5004C15.7802 24.139 16.1045 23.9503 16.7093 23.5396C18.1995 22.5276 19.4558 21.2595 20.4946 19.7188C20.6139 19.542 20.7496 19.3298 20.7963 19.2473C20.8431 19.1647 20.9642 18.9526 21.0655 18.7757C21.2295 18.4896 21.4206 18.0999 21.6988 17.484C22.1762 16.4273 22.6508 14.4686 22.6508 13.5549C22.6508 13.3944 22.6712 13.2428 22.696 13.2179C22.7852 13.1288 22.6876 11.498 22.5426 10.6526C22.4355 10.0292 22.4137 9.92603 22.2886 9.45231C22.1326 8.86209 22.117 8.81009 21.9862 8.44496C21.2452 6.37751 19.9605 4.492 18.3394 3.09275C18.1035 2.8891 17.9008 2.71154 17.889 2.69821C17.8339 2.63593 16.9665 2.03992 16.602 1.81392C16.1944 1.56118 14.8938 0.900487 14.8038 0.900487C14.7776 0.900487 14.7226 0.881926 14.6817 0.859249C14.5981 0.813039 13.8747 0.563129 13.5133 0.455663C13.0091 0.305716 12.4428 0.200094 11.7544 0.127564C11.5066 0.101459 11.2447 0.0621079 11.1722 0.0402032C11.0221 -0.00527794 0.073915 -0.0163806 0.0286135 0.0288862ZM11.0466 0.766616C11.1881 0.797094 11.4487 0.850505 11.6257 0.885227C12.2884 1.01537 12.8059 1.16051 13.4704 1.40262C14.5179 1.7843 15.6604 2.38773 16.6449 3.07934C17.3614 3.58263 18.4816 4.62342 19.0059 5.27285C19.1106 5.40252 19.2062 5.51826 19.2185 5.53005C19.3088 5.61694 19.7736 6.28458 20.0418 6.71247C20.4562 7.37385 20.9739 8.42134 21.1519 8.95901C21.1949 9.08889 21.2673 9.30121 21.3128 9.43088C21.395 9.66506 21.4258 9.77312 21.5509 10.2668C21.8164 11.3139 21.9511 12.6057 21.904 13.6532C21.8761 14.2741 21.7465 15.3806 21.6654 15.6894C21.6437 15.7719 21.5952 15.9744 21.5575 16.1395C21.3803 16.9151 21.0804 17.7512 20.6429 18.69C20.3836 19.2464 19.7889 20.17 19.2767 20.8119C18.2576 22.089 17.031 23.0659 15.5081 23.8131C14.1793 24.4651 12.8985 24.8179 11.0871 25.0307C10.8332 25.0606 8.90198 25.0767 5.51023 25.0774L0.321744 25.0785V24.8742V24.6698L4.80471 24.6432C7.52753 24.627 9.43084 24.5988 9.65233 24.5712C10.4702 24.4694 10.8991 24.3945 11.3039 24.2826C11.4455 24.2435 11.6289 24.1967 11.7115 24.1788C12.421 24.0242 14.0549 23.2646 14.9289 22.683C18.272 20.4586 20.3501 16.9505 20.5396 13.2111C20.6554 10.9279 20.0859 8.69122 18.8842 6.70887C18.6523 6.32646 18.197 5.67361 18.047 5.50861C18.0041 5.46146 17.9076 5.34208 17.8325 5.24331C17.6966 5.06465 16.6827 4.04674 16.4679 3.87322C15.4656 3.06412 14.405 2.42014 13.4489 2.04026C13.2837 1.97463 13.11 1.90454 13.0628 1.88448C12.7034 1.73171 11.655 1.45591 11.1324 1.3766C10.9672 1.35153 10.6873 1.30926 10.5103 1.28264C10.2953 1.25032 8.56603 1.22464 5.29806 1.20531C2.60827 1.18936 0.383433 1.16137 0.353919 1.14302C0.297292 1.10787 0.278845 0.764773 0.330796 0.712819C0.34757 0.696058 2.70754 0.688855 5.57523 0.696786C9.6332 0.708017 10.8462 0.723493 11.0466 0.766616ZM9.69523 1.92804C10.5488 2.02393 11.623 2.27628 12.2477 2.52773C12.2949 2.54672 12.4687 2.61467 12.6338 2.67875C13.0704 2.84807 13.6084 3.10532 14.0495 3.35553C14.4551 3.58567 15.2847 4.13715 15.4795 4.30617C15.5424 4.36078 15.8062 4.58793 16.0658 4.81092C16.3253 5.03396 16.6534 5.34971 16.7948 5.51256C16.9363 5.67541 17.0764 5.83431 17.1062 5.8656C17.3581 6.1306 18.0828 7.15194 18.3586 7.63058C18.8207 8.43261 19.3031 9.62592 19.4973 10.4473C19.5352 10.6073 19.5755 10.7769 19.5869 10.824C19.7038 11.3071 19.8613 12.66 19.8613 13.1817C19.8614 13.5305 19.7569 14.6509 19.6896 15.0249C19.5699 15.689 19.5172 15.9084 19.3132 16.5927C18.7793 18.3837 17.5627 20.2372 16.1301 21.4422C15.3927 22.0624 14.3169 22.7255 13.5737 23.018C13.4343 23.0729 13.2623 23.1429 13.1915 23.1736C12.8724 23.3119 11.9734 23.5673 11.4755 23.6611C10.2052 23.9004 9.49446 23.9261 4.54732 23.9111L0.321744 23.8983V23.6625V23.4267L4.39717 23.402C8.62536 23.3764 8.73493 23.3719 9.65233 23.1871C10.8212 22.9516 11.7581 22.597 12.977 21.9288C13.0242 21.903 13.2559 21.7552 13.4918 21.6005C15.8666 20.0431 17.6608 17.5238 18.2357 14.9392C18.4365 14.0366 18.4612 13.7898 18.4628 12.6673C18.4647 11.4311 18.4408 11.2205 18.1666 10.0589C17.8554 8.74009 17.0603 7.18126 16.1301 6.06588C15.8749 5.75981 15.1791 5.06739 14.8446 4.78649C13.9808 4.06119 12.8006 3.38832 11.69 2.98803C11.3358 2.86038 11.0418 2.77143 10.7463 2.70259C10.6283 2.67507 10.4642 2.63529 10.3816 2.61415C9.57743 2.40827 8.94719 2.38422 4.28992 2.3816L0.321744 2.37937L0.308317 2.19231C0.300939 2.08938 0.305143 1.97849 0.317712 1.94582C0.336931 1.89571 1.04425 1.88645 4.83556 1.88675C7.40771 1.88693 9.48657 1.90459 9.69523 1.92804ZM9.06808 3.15427C9.75035 3.26049 10.5455 3.46119 11.0037 3.64277C11.0508 3.66146 11.2246 3.73026 11.3897 3.79559C12.1796 4.10813 13.2521 4.74337 13.9852 5.33286C14.4295 5.6902 15.1994 6.4647 15.5441 6.90113C16.8687 8.57814 17.5649 10.3411 17.7403 12.4628C17.7935 13.1061 17.7933 13.2942 17.7386 13.9203C17.6533 14.8969 17.5538 15.4308 17.317 16.1823C16.9301 17.4099 16.3331 18.513 15.5303 19.483C15.3502 19.7007 14.619 20.4214 14.3971 20.6C14.2815 20.6929 14.1654 20.7883 14.139 20.8119C14.07 20.8737 13.4012 21.3137 13.1469 21.4647C12.8456 21.6436 12.1903 21.9493 11.8402 22.0743C11.7576 22.1038 11.6514 22.1448 11.6042 22.1653C11.4985 22.2114 10.8934 22.374 10.6605 22.4189C9.19438 22.7016 8.59465 22.7286 4.13978 22.7121L0.321744 22.698V22.4622V22.2265L3.94673 22.1988C6.20585 22.1815 7.69295 22.1534 7.89346 22.124C8.70353 22.0054 9.43041 21.8324 9.88827 21.6492C9.93546 21.6304 10.1092 21.5611 10.2744 21.4953C10.719 21.3183 11.4778 20.922 11.9101 20.641C12.5386 20.2326 12.989 19.8616 13.5993 19.2496C14.4665 18.38 15.036 17.5876 15.5321 16.5603C15.9157 15.766 16.122 15.1201 16.3304 14.0604C16.4332 13.5373 16.4335 11.7549 16.3307 11.2098C16.1279 10.1336 15.9006 9.43838 15.4679 8.57043C14.8169 7.26442 13.8858 6.16768 12.6767 5.28271C12.248 4.96893 11.4304 4.51759 10.9179 4.31174C10.7527 4.24543 10.579 4.17564 10.5318 4.15665C10.2115 4.02775 9.67764 3.87674 9.19725 3.77917C8.30735 3.59845 8.02833 3.58777 4.09688 3.58362L0.321744 3.57963L0.308317 3.39256C0.300939 3.28964 0.305143 3.17874 0.317712 3.14608C0.354091 3.05126 8.45522 3.05885 9.06808 3.15427ZM8.14356 4.37532C9.43492 4.51699 10.9952 5.18935 12.2035 6.12482C12.5607 6.4013 13.3876 7.20702 13.6829 7.5662C14.1876 8.18017 14.7907 9.19936 15.116 9.98814C15.2941 10.42 15.5303 11.3012 15.6216 11.8743C15.6981 12.3542 15.6984 14.0982 15.6221 14.5105C15.3562 15.9471 14.9129 17.0863 14.2291 18.0899C13.9059 18.5643 13.1011 19.4174 12.5986 19.8182C11.8191 20.44 10.6037 21.0198 9.63088 21.2339C8.59001 21.4629 8.28757 21.4763 4.14758 21.4763H0.300295V21.2434C0.300295 21.0524 0.314923 21.0059 0.381631 20.9848C0.426375 20.9706 1.82116 20.9628 3.4811 20.9675C6.56637 20.9762 6.73411 20.9695 7.57172 20.8039C8.06549 20.7063 8.70516 20.5061 9.11609 20.3207C10.302 19.7856 10.9463 19.3356 11.9053 18.3725C12.4278 17.8477 12.6228 17.6156 12.9376 17.1436C13.6638 16.0548 14.046 15.1168 14.2899 13.8247C14.3663 13.4203 14.365 11.8275 14.2879 11.4242C13.838 9.06879 12.7243 7.3333 10.8678 6.09455C10.5103 5.85596 9.58373 5.36733 9.37348 5.30646C9.32629 5.29278 9.1236 5.22454 8.92304 5.15475C8.72249 5.08501 8.42327 4.9973 8.2581 4.95984C8.09294 4.92237 7.89989 4.87792 7.82911 4.86099C7.75833 4.84406 6.04021 4.81889 4.01108 4.80505L0.321744 4.77989L0.308789 4.55484L0.295791 4.32979H4.01224C6.34492 4.32979 7.88316 4.34672 8.14356 4.37532ZM7.33028 5.59559C7.80401 5.6637 8.52828 5.84786 8.59915 5.91825C8.62155 5.94049 8.66728 5.95871 8.7007 5.95871C8.73416 5.95871 8.97225 6.06459 9.22986 6.19396C11.2132 7.19017 12.7268 8.97384 13.3408 11.0384C13.7415 12.386 13.7498 13.8993 13.364 15.2607C13.2317 15.7274 13.1958 15.842 13.1694 15.8823C13.1539 15.9058 13.0861 16.0602 13.0188 16.2252C12.7438 16.8988 12.177 17.7487 11.6378 18.2958C10.9346 19.0094 9.96283 19.6164 9.05174 19.9113C8.92197 19.9533 8.77718 20.0029 8.72999 20.0214C8.57869 20.0809 7.97184 20.1841 7.48592 20.2329C7.17215 20.2644 5.89264 20.276 3.66788 20.2675L0.321744 20.2546V20.0189V19.7831L3.17454 19.7578C4.9341 19.7422 6.11044 19.715 6.2442 19.6867C7.08073 19.5099 7.57575 19.339 8.23498 18.9993C9.88308 18.1501 11.0445 16.879 11.8616 15.0304C11.9747 14.7747 12.1336 14.2023 12.2322 13.6961C12.3086 13.3036 12.3097 11.9968 12.234 11.5956C12.0724 10.7404 11.8923 10.2059 11.5333 9.51661C11.1523 8.7851 10.5164 8.0015 9.88827 7.48964C9.18052 6.91283 8.12314 6.40126 7.22852 6.20288C7.06336 6.16623 6.8124 6.11076 6.67083 6.07964C6.47092 6.03565 5.73301 6.02301 3.36759 6.02301H0.321744L0.308317 5.83594C0.300939 5.73302 0.305143 5.62212 0.317712 5.58946C0.353233 5.49691 6.68241 5.50244 7.33028 5.59559ZM6.65462 6.87078C8.41593 7.35444 9.83701 8.44401 10.7355 9.99967C11.5601 11.4274 11.806 13.2471 11.3828 14.789C11.3471 14.9188 11.3028 15.0828 11.2843 15.1535C11.2659 15.2243 11.2262 15.34 11.1962 15.4107C11.1662 15.4815 11.1133 15.6068 11.0786 15.6894C10.7688 16.4261 10.4397 16.92 9.89003 17.473C9.2619 18.105 8.57268 18.5249 7.69226 18.812C6.93256 19.0596 7.02269 19.0544 3.53919 19.0544H0.321744V18.8186V18.5828L2.65975 18.5589C5.1075 18.5338 5.19004 18.5278 5.8772 18.3234C6.78499 18.0536 7.66717 17.5073 8.43103 16.7422C9.62976 15.5415 10.2532 14.1428 10.2528 12.6551C10.2527 12.1898 10.1718 11.5269 10.0843 11.2741C10.0639 11.2152 10.0134 11.0512 9.97201 10.9098C9.68802 9.93897 8.88254 8.84383 7.99376 8.22025C7.4289 7.82395 6.66851 7.49097 6.01554 7.35405C5.51332 7.24869 5.01282 7.22978 2.6383 7.22648L0.321744 7.22327L0.308317 7.0362C0.283908 6.69597 0.00656489 6.7234 3.29213 6.74132L6.24184 6.7574L6.65462 6.87078ZM5.51255 8.03357C6.4233 8.29741 7.17159 8.7085 7.81495 9.29842C8.32841 9.76922 8.84955 10.5209 9.11051 11.167C9.17713 11.332 9.24787 11.5056 9.26765 11.5528C9.31167 11.6577 9.41703 12.1065 9.47829 12.4501C9.63375 13.3221 9.42479 14.6495 8.99889 15.4956C8.79572 15.8994 8.37642 16.4859 8.13777 16.7004C7.54036 17.237 6.72536 17.5973 5.7056 17.7754C5.30372 17.8456 4.98927 17.8541 2.78845 17.8541H0.321744V17.6183V17.3826L2.17255 17.3557C3.67848 17.3339 4.0862 17.3154 4.36041 17.2561C5.32551 17.0474 6.01726 16.6663 6.73548 15.9475C7.3963 15.2861 7.81881 14.5704 8.05189 13.7175C8.11203 13.4974 8.12735 13.2812 8.12494 12.6887C8.12211 12.0015 8.11207 11.9062 8.00555 11.5528C7.64765 10.3652 6.88194 9.42707 5.85575 8.9188C4.89339 8.44217 4.76156 8.42369 2.31656 8.42361L0.321744 8.42352L0.308317 8.23645C0.283908 7.89639 0.0611312 7.92276 2.79896 7.94188C4.97215 7.95705 5.2848 7.9676 5.51255 8.03357ZM4.29739 9.17656C5.13204 9.34361 5.80281 9.69807 6.39242 10.2837C6.77448 10.6633 6.92647 10.8762 7.18845 11.3992C7.4443 11.9098 7.55078 12.3369 7.58017 12.9702C7.62388 13.9126 7.38017 14.7256 6.83827 15.4454C6.36256 16.0773 5.64035 16.4496 4.54239 16.6289C4.36809 16.6574 3.49492 16.6753 2.27945 16.6753H0.300295V16.4645C0.300295 16.3485 0.310161 16.2279 0.322216 16.1966C0.339847 16.1506 0.587848 16.141 1.59847 16.1475C2.82852 16.1554 3.42143 16.114 3.81765 15.9925C3.90001 15.9673 4.15024 15.8559 4.37371 15.7451C5.25876 15.3062 5.99105 14.3408 6.19834 13.3396C6.42154 12.2617 5.98256 11.0556 5.11286 10.3571C4.82844 10.1286 4.26701 9.81668 4.14025 9.81668C4.10395 9.81668 4.04072 9.79944 3.99975 9.77844C3.7953 9.67342 3.32255 9.64392 1.89203 9.64693C1.06356 9.64864 0.36653 9.63818 0.343021 9.62365C0.295617 9.59437 0.283735 9.2045 0.328908 9.15941C0.377727 9.11058 4.04711 9.12644 4.29739 9.17656ZM3.43194 10.4145C4.04004 10.5397 4.47778 10.7851 4.93998 11.2597C5.37785 11.7093 5.62817 12.1605 5.77081 12.7573C5.85021 13.0896 5.84901 13.3128 5.76579 13.6876C5.61581 14.3629 5.18682 14.9893 4.71291 15.225C4.25766 15.4515 4.29344 15.4479 2.34324 15.4652C1.33151 15.4742 0.457993 15.4701 0.402052 15.456C0.31072 15.4331 0.300295 15.4069 0.300295 15.1991V14.9677L1.49075 14.9508C2.86142 14.9314 3.06425 14.8918 3.54609 14.5494C4.31807 14.0009 4.65311 13.1672 4.43677 12.3331C4.34509 11.9795 4.23334 11.7732 3.99636 11.52C3.73283 11.2384 3.50598 11.0867 3.17098 10.9681C2.91273 10.8766 2.81539 10.8696 1.598 10.8543L0.300295 10.8379V10.6095C0.300295 10.4681 0.320715 10.372 0.353919 10.3572C0.452158 10.3135 3.18896 10.3645 3.43194 10.4145ZM3.15618 11.6451C3.73172 11.8383 4.16933 12.3773 4.22978 12.9673C4.26157 13.2777 4.13991 13.6881 3.9421 13.9377C3.70748 14.2337 3.58672 14.2514 1.87272 14.241C1.05056 14.236 0.360439 14.2211 0.339075 14.2079C0.294803 14.1806 0.284893 11.6468 0.328908 11.6028C0.344609 11.5871 0.939623 11.5742 1.65115 11.5742C2.74126 11.5742 2.97802 11.5853 3.15618 11.6451Z" fill="var(--fill-0, white)"/>
</svg>
